<?xml version="1.0" encoding="UTF-8" standalone="no"?>
<svg
   xmlns:dc="http://purl.org/dc/elements/1.1/"
   xmlns:cc="http://creativecommons.org/ns#"
   xmlns:rdf="http://www.w3.org/1999/02/22-rdf-syntax-ns#"
   xmlns:svg="http://www.w3.org/2000/svg"
   xmlns="http://www.w3.org/2000/svg"
   xmlns:sodipodi="http://sodipodi.sourceforge.net/DTD/sodipodi-0.dtd"
   xmlns:inkscape="http://www.inkscape.org/namespaces/inkscape"
   xml:space="preserve"
   viewBox="0 0 16.000001 16.000001"
   height="16"
   width="16"
   y="0px"
   x="0px"
   id="Capa_1"
   version="1.1"
   sodipodi:docname="edit_dark.svg"
   inkscape:version="0.92.4 (5da689c313, 2019-01-14)"><sodipodi:namedview
   pagecolor="#ffffff"
   bordercolor="#666666"
   borderopacity="1"
   objecttolerance="10"
   gridtolerance="10"
   guidetolerance="10"
   inkscape:pageopacity="0"
   inkscape:pageshadow="2"
   inkscape:window-width="1920"
   inkscape:window-height="1001"
   id="namedview22"
   showgrid="false"
   inkscape:zoom="8.4285714"
   inkscape:cx="-43.957628"
   inkscape:cy="14"
   inkscape:window-x="-9"
   inkscape:window-y="-9"
   inkscape:window-maximized="1"
   inkscape:current-layer="Capa_1" /><metadata
   id="metadata41"><rdf:RDF><cc:Work
       rdf:about=""><dc:format>image/svg+xml</dc:format><dc:type
         rdf:resource="http://purl.org/dc/dcmitype/StillImage" /><dc:title></dc:title></cc:Work></rdf:RDF></metadata><defs
   id="defs39" />
<g
   transform="matrix(0.01976168,-0.00358054,-0.00359478,0.01987659,3.8566213,3.5527009)"
   id="g4"
   style="fill:#c5c5c5;fill-opacity:1">
	<path
   id="path2"
   d="M 328.883,89.125 436.473,196.714 164.133,469.054 56.604,361.465 Z M 518.113,63.177 470.132,15.196 c -18.543,-18.543 -48.653,-18.543 -67.259,0 l -45.961,45.961 107.59,107.59 53.611,-53.611 c 14.382,-14.383 14.382,-37.577 0,-51.959 z M 0.3,512.69 c -1.958,8.812 5.998,16.708 14.811,14.565 L 135.002,498.186 27.473,390.597 Z"
   style="fill:#c5c5c5;fill-opacity:1"
   inkscape:connector-curvature="0" />
</g>
<g
   transform="translate(0,-512.89899)"
   id="g6">
</g>
<g
   transform="translate(0,-512.89899)"
   id="g8">
</g>
<g
   transform="translate(0,-512.89899)"
   id="g10">
</g>
<g
   transform="translate(0,-512.89899)"
   id="g12">
</g>
<g
   transform="translate(0,-512.89899)"
   id="g14">
</g>
<g
   transform="translate(0,-512.89899)"
   id="g16">
</g>
<g
   transform="translate(0,-512.89899)"
   id="g18">
</g>
<g
   transform="translate(0,-512.89899)"
   id="g20">
</g>
<g
   transform="translate(0,-512.89899)"
   id="g22">
</g>
<g
   transform="translate(0,-512.89899)"
   id="g24">
</g>
<g
   transform="translate(0,-512.89899)"
   id="g26">
</g>
<g
   transform="translate(0,-512.89899)"
   id="g28">
</g>
<g
   transform="translate(0,-512.89899)"
   id="g30">
</g>
<g
   transform="translate(0,-512.89899)"
   id="g32">
</g>
<g
   transform="translate(0,-512.89899)"
   id="g34">
</g>
</svg>