<?xml version="1.0" encoding="iso-8859-1"?>
<!-- Generator: Adobe Illustrator 16.0.0, SVG Export Plug-In . SVG Version: 6.00 Build 0)  -->
<!DOCTYPE svg PUBLIC "-//W3C//DTD SVG 1.1//EN" "http://www.w3.org/Graphics/SVG/1.1/DTD/svg11.dtd">
<svg version="1.1" id="Capa_1" xmlns="http://www.w3.org/2000/svg" xmlns:xlink="http://www.w3.org/1999/xlink" x="0px" y="0px"
	 width="387.363px" height="387.363px" viewBox="0 0 387.363 387.363" style="enable-background:new 0 0 387.363 387.363;"
	 xml:space="preserve">
<g>
	<path d="M368.891,285.123V178.782H221.352v-64.534h27.51l-55.174-95.566l-55.185,95.565h27.51v64.535H18.473v106.343
		C7.258,293.607,0,307.05,0,322.199c0,25.673,20.811,46.482,46.483,46.482c25.675,0,46.483-20.811,46.483-46.482
		c0-15.162-7.261-28.623-18.494-37.108v-50.31h91.539v14.539v35.526c-11.416,8.47-18.813,22.045-18.813,37.353
		c0.001,25.672,20.812,46.482,46.484,46.482c25.671,0,46.483-20.811,46.483-46.482c0-15.308-7.397-28.883-18.813-37.353v-50.065
		h91.539v50.31c-11.232,8.485-18.494,21.946-18.494,37.108c0,25.673,20.811,46.482,46.484,46.482
		c25.672,0,46.482-20.811,46.482-46.482C387.363,307.049,380.105,293.607,368.891,285.123z"/>
</g>
<g>
</g>
<g>
</g>
<g>
</g>
<g>
</g>
<g>
</g>
<g>
</g>
<g>
</g>
<g>
</g>
<g>
</g>
<g>
</g>
<g>
</g>
<g>
</g>
<g>
</g>
<g>
</g>
<g>
</g>
</svg>
