<svg viewBox="-9 1 511 511.99902" xmlns="http://www.w3.org/2000/svg"><path d="m422.609375 263.808594c18.015625.195312 37.238281-7.644532 50.121094-20.523438 28.671875-28.679687 28.625-75.390625-.113281-104.128906-25.753907-25.753906-64.007813-27.945312-97.449219-5.585938-7.542969 5.039063-16.351563 5.019532-21.425781-.050781-1.574219-1.574219-6.359376-6.359375-2.832032-21.175781 3.621094-15.183594 1.425782-31.933594-6.347656-48.449219-6.984375-14.847656-16.796875-26.304687-23.792969-33.304687-19.6875-19.683594-45.878906-30.5507815-73.75-30.589844-.054687 0-.101562 0-.15625 0-27.828125 0-53.949219 10.796875-73.5625 30.410156-24.523437 24.523438-35.457031 57.832032-29.25 89.089844.871094 4.402344-.496093 9.175781-3.484375 12.164062-4.59375 4.589844-12.425781 4.996094-22.652344 1.171876-8.46875-3.167969-34.242187-12.804688-52.828124 5.785156-9 9-13.746094 22.164062-12.691407 35.21875.859375 10.59375 6.273438 20.804687 14.488281 27.316406 6.566407 5.210938 12.414063 7.992188 17.113282 10.222656.703125.335938 1.394531.667969 2.085937 1 5.554688 2.707032 9.570313 4.660156 14.203125 9.003906 8.148438 7.636719 12.734375 17.953126 12.910156 29.054688.171876 10.464844-3.808593 20.546875-10.921874 27.660156-6.308594 6.308594-13.582032 9.9375-23.585938 11.777344-2.058594.378906-4.140625.742188-6.242188 1.101562-16.707031 2.878907-35.648437 6.140626-50.457031 20.953126-13.890625 13.890624-21.523437 32.390624-21.488281 52.09375.035156 19.660156 7.707031 38.136718 21.601562 52.03125 13.839844 13.835937 32.125 21.632812 51.492188 21.941406 19.550781.304687 37.816406-7.011719 51.433594-20.628906l.816406-.832032c3.257812-3.375 8.6875-9.261718 11.273438-12.320312 1.382812-1.636719 2.855468-3.238282 4.371093-4.753906 14.597657-14.597657 33.015625-21.261719 49.265625-17.832032 10.082032 2.128906 23.871094 9.257813 32.355469 31.199219l.339844.859375c8.125 21.039062 19.253906 49.847656 37.121093 67.714844 19.683594 19.683594 45.863282 30.550781 73.722657 30.597656h.179687c27.828125 0 53.953125-10.804688 73.570313-30.421875 19.804687-19.804687 30.921875-45.410156 31.304687-72.097656.390625-26.988281-10.191406-52.691407-29.792968-72.371094l-.582032-.570313c-8.078125-7.804687-14.039062-13.648437-15.964844-15.664062-11.6875-12.160156-10.371093-32.875 2.933594-46.179688 7.523438-7.519531 15.980469-11.003906 26.667969-10.886718zm0 0"/></svg>