<?xml version="1.0" encoding="UTF-8"?>
<svg xmlns="http://www.w3.org/2000/svg" xmlns:xlink="http://www.w3.org/1999/xlink" width="16pt" height="16pt" viewBox="0 0 16 16" version="1.1">
<g id="surface1">
<path style=" stroke:none;fill-rule:nonzero;fill:rgb(0%,0%,0%);fill-opacity:1;" d="M 14.398438 1.601562 L 1.601562 1.601562 C 0.71875 1.601562 0 2.320312 0 3.199219 L 0 12.800781 C 0 13.679688 0.71875 14.398438 1.601562 14.398438 L 14.398438 14.398438 C 15.28125 14.398438 16 13.679688 16 12.800781 L 16 3.199219 C 16 2.320312 15.28125 1.601562 14.398438 1.601562 Z M 10.398438 12.800781 L 1.601562 12.800781 L 1.601562 9.601562 L 10.398438 9.601562 Z M 10.398438 8.800781 L 1.601562 8.800781 L 1.601562 5.601562 L 10.398438 5.601562 Z M 14.398438 12.800781 L 11.199219 12.800781 L 11.199219 5.601562 L 14.398438 5.601562 Z M 14.398438 12.800781 "/>
</g>
</svg>
