<?xml version="1.0" encoding="UTF-8" standalone="no"?>
<svg
   xmlns:dc="http://purl.org/dc/elements/1.1/"
   xmlns:cc="http://creativecommons.org/ns#"
   xmlns:rdf="http://www.w3.org/1999/02/22-rdf-syntax-ns#"
   xmlns:svg="http://www.w3.org/2000/svg"
   xmlns="http://www.w3.org/2000/svg"
   width="28px"
   height="28px"
   viewBox="0 0 28 28"
   version="1.1"
   id="SVGRoot">
  <defs
     id="defs26" />
  <metadata
     id="metadata29">
    <rdf:RDF>
      <cc:Work
         rdf:about="">
        <dc:format>image/svg+xml</dc:format>
        <dc:type
           rdf:resource="http://purl.org/dc/dcmitype/StillImage" />
        <dc:title></dc:title>
      </cc:Work>
    </rdf:RDF>
  </metadata>
  <g
     transform="matrix(0.83446652,0,0,0.83446652,2.3941583,2.3038705)"
     id="layer1">
    <circle
       r="12"
       id="path39"
       cx="14"
       cy="14"
       style="stroke-width:1.25065172" />
  </g>
  <g
     style="display:inline"
     id="layer2">
    <g
       style="display:none;fill:#00ff00"
       id="layer2-6"
       transform="matrix(0.97618327,0,0,0.86627103,0.59338724,-0.81075898)">
      <path
         style="fill:#00ff00;stroke-width:0.83446652"
         d="m 24.295558,14.629278 c 0,0 0.08479,2.365035 -0.108113,2.880085 -0.192895,0.515049 -0.818893,1.003569 -1.27865,1.522507 -1.125593,1.27048 -2.18042,0.443779 -3.469715,2.40819 -2.022529,3.081589 -2.306428,1.035118 -3.638124,-0.85583 C 13.623451,17.955337 11.91296,16.056943 9.7039214,16.605431 7.9465052,17.041784 7.0865295,19.251189 6.0850202,19.276387 5.6245863,19.287972 4.9053697,18.900072 4.3141835,18.282601 3.9279891,17.879236 3.4148356,17.683367 3.400798,17.32212 3.3867603,16.960873 3.2033756,16.24593 3.3247956,14.5305 c 0,-5.7885074 4.8686361,-10.2233454 10.6763414,-10.2233454 5.807705,5e-7 10.15769,4.9800842 10.294421,10.3221234 z"
         id="path39-2" />
    </g>
  </g>
</svg>
