<?xml version="1.0" encoding="UTF-8" standalone="no"?>
<svg
   xmlns:dc="http://purl.org/dc/elements/1.1/"
   xmlns:cc="http://creativecommons.org/ns#"
   xmlns:rdf="http://www.w3.org/1999/02/22-rdf-syntax-ns#"
   xmlns:svg="http://www.w3.org/2000/svg"
   xmlns="http://www.w3.org/2000/svg"
   xmlns:sodipodi="http://sodipodi.sourceforge.net/DTD/sodipodi-0.dtd"
   xmlns:inkscape="http://www.inkscape.org/namespaces/inkscape"
   id="SVGRoot"
   version="1.1"
   viewBox="0 0 28 28"
   height="28px"
   width="28px"
   sodipodi:docname="swatch.svg"
   inkscape:version="0.92.4 (5da689c313, 2019-01-14)">
  <sodipodi:namedview
     pagecolor="#ffffff"
     bordercolor="#666666"
     borderopacity="1"
     objecttolerance="10"
     gridtolerance="10"
     guidetolerance="10"
     inkscape:pageopacity="0"
     inkscape:pageshadow="2"
     inkscape:window-width="1830"
     inkscape:window-height="1051"
     id="namedview837"
     showgrid="false"
     inkscape:zoom="28.071429"
     inkscape:cx="14"
     inkscape:cy="14"
     inkscape:window-x="81"
     inkscape:window-y="-9"
     inkscape:window-maximized="1"
     inkscape:current-layer="SVGRoot" />
  <defs
     id="defs12" />
  <metadata
     id="metadata15">
    <rdf:RDF>
      <cc:Work
         rdf:about="">
        <dc:format>image/svg+xml</dc:format>
        <dc:type
           rdf:resource="http://purl.org/dc/dcmitype/StillImage" />
        <dc:title />
      </cc:Work>
    </rdf:RDF>
  </metadata>
  <g
     id="layer1">
    <g
       style="fill:#333333"
       id="layer1-9"
       transform="matrix(0.83446652,0,0,0.83446652,2.331067,2.3038705)">
      <circle
         style="stroke-width:1.25065172;fill:%COLOR1%;fill-opacity:0"
         cy="14"
         cx="14"
         id="path39"
         r="12" />
    </g>
  </g>
  <g
     id="layer2">
    <g
       id="layer2-4"
       transform="translate(-0.0720889,0.95715235)">
      <g
         transform="matrix(0.97618327,0,0,0.86627103,0.59338724,-0.81075898)"
         id="layer2-6">
        <path
           id="path39-2"
           d="m 24.295558,14.588155 c 0,0 0.08479,2.365035 -0.108113,2.880085 -0.192895,0.515049 -0.818893,1.003569 -1.27865,1.522507 -1.125593,1.27048 -2.18042,0.443779 -3.469715,2.40819 -2.022529,3.081589 -2.306428,1.035118 -3.638124,-0.85583 C 13.623451,17.914214 11.91296,16.01582 9.7039214,16.564308 7.9465052,17.000661 7.0865295,19.210066 6.0850202,19.235264 5.6245863,19.246849 4.9053697,18.858949 4.3141835,18.241478 3.9279891,17.838113 3.4148356,17.642244 3.400798,17.280997 3.3867603,16.91975 3.2033756,16.204807 3.3247956,14.489377 3.6609261,8.7008699 8.1934317,4.2660319 14.001137,4.2660319 c 5.807705,5e-7 10.15769,4.9800842 10.294421,10.3221231 z"
           inkscape:connector-curvature="0" />
      </g>
    </g>
  </g>
</svg>
