<?xml version="1.0" encoding="UTF-8" standalone="no"?>
<!-- Generator: Adobe Illustrator 16.0.0, SVG Export Plug-In . SVG Version: 6.00 Build 0)  -->

<svg
   xmlns:dc="http://purl.org/dc/elements/1.1/"
   xmlns:cc="http://creativecommons.org/ns#"
   xmlns:rdf="http://www.w3.org/1999/02/22-rdf-syntax-ns#"
   xmlns:svg="http://www.w3.org/2000/svg"
   xmlns="http://www.w3.org/2000/svg"
   xmlns:sodipodi="http://sodipodi.sourceforge.net/DTD/sodipodi-0.dtd"
   xmlns:inkscape="http://www.inkscape.org/namespaces/inkscape"
   version="1.1"
   id="Capa_1"
   x="0px"
   y="0px"
   width="28"
   height="28"
   viewBox="0 0 28.000001 28.000001"
   xml:space="preserve"
   sodipodi:docname="master_button_edit.svg"
   inkscape:version="0.92.4 (5da689c313, 2019-01-14)"><metadata
   id="metadata41"><rdf:RDF><cc:Work
       rdf:about=""><dc:format>image/svg+xml</dc:format><dc:type
         rdf:resource="http://purl.org/dc/dcmitype/StillImage" /><dc:title></dc:title></cc:Work></rdf:RDF></metadata><defs
   id="defs39" /><sodipodi:namedview
   pagecolor="#ffffff"
   bordercolor="#666666"
   borderopacity="1"
   objecttolerance="10"
   gridtolerance="10"
   guidetolerance="10"
   inkscape:pageopacity="0"
   inkscape:pageshadow="2"
   inkscape:window-width="3658"
   inkscape:window-height="2104"
   id="namedview37"
   showgrid="false"
   inkscape:zoom="45.254834"
   inkscape:cx="18.86845"
   inkscape:cy="12.175823"
   inkscape:window-x="166"
   inkscape:window-y="-16"
   inkscape:window-maximized="1"
   inkscape:current-layer="Capa_1" />
<g
   id="g4"
   transform="matrix(0.03952336,-0.00716107,-0.00718957,0.03975318,5.7132426,5.1054033)">
	<path
   d="M 328.883,89.125 436.473,196.714 164.133,469.054 56.604,361.465 Z M 518.113,63.177 470.132,15.196 c -18.543,-18.543 -48.653,-18.543 -67.259,0 l -45.961,45.961 107.59,107.59 53.611,-53.611 c 14.382,-14.383 14.382,-37.577 0,-51.959 z M 0.3,512.69 c -1.958,8.812 5.998,16.708 14.811,14.565 L 135.002,498.186 27.473,390.597 Z"
   id="path2"
   inkscape:connector-curvature="0" />
</g>
<g
   id="g6"
   transform="translate(0,-500.89899)">
</g>
<g
   id="g8"
   transform="translate(0,-500.89899)">
</g>
<g
   id="g10"
   transform="translate(0,-500.89899)">
</g>
<g
   id="g12"
   transform="translate(0,-500.89899)">
</g>
<g
   id="g14"
   transform="translate(0,-500.89899)">
</g>
<g
   id="g16"
   transform="translate(0,-500.89899)">
</g>
<g
   id="g18"
   transform="translate(0,-500.89899)">
</g>
<g
   id="g20"
   transform="translate(0,-500.89899)">
</g>
<g
   id="g22"
   transform="translate(0,-500.89899)">
</g>
<g
   id="g24"
   transform="translate(0,-500.89899)">
</g>
<g
   id="g26"
   transform="translate(0,-500.89899)">
</g>
<g
   id="g28"
   transform="translate(0,-500.89899)">
</g>
<g
   id="g30"
   transform="translate(0,-500.89899)">
</g>
<g
   id="g32"
   transform="translate(0,-500.89899)">
</g>
<g
   id="g34"
   transform="translate(0,-500.89899)">
</g>
</svg>