<svg viewBox="-9 1 511 511.999" xmlns="http://www.w3.org/2000/svg">
    <g fill="#E95378E6">
        <path d="M422.61 263.809c18.015.195 37.238-7.645 50.12-20.524 28.672-28.68 28.625-75.39-.113-104.129-25.754-25.754-64.008-27.945-97.449-5.586-7.543 5.04-16.352 5.02-21.426-.05-1.574-1.575-6.36-6.36-2.832-21.176 3.621-15.184 1.426-31.934-6.348-48.45-6.984-14.847-16.796-26.304-23.792-33.304C301.082 10.906 274.89.04 247.02 0h-.157c-27.828 0-53.949 10.797-73.562 30.41-24.524 24.524-35.457 57.832-29.25 89.09.87 4.402-.496 9.176-3.485 12.164-4.593 4.59-12.425 4.996-22.652 1.172-8.469-3.168-34.242-12.805-52.828 5.785-9 9-13.746 22.164-12.691 35.219.859 10.594 6.273 20.805 14.488 27.316 6.566 5.211 12.414 7.992 17.113 10.223l2.086 1c5.555 2.707 9.57 4.66 14.203 9.004 8.149 7.637 12.735 17.953 12.91 29.055.172 10.464-3.808 20.546-10.922 27.66-6.308 6.308-13.582 9.937-23.586 11.777-2.058.379-4.14.742-6.242 1.102-16.707 2.878-35.648 6.14-50.457 20.953C8.098 325.82.465 344.32.5 364.023c.035 19.66 7.707 38.137 21.602 52.032 13.84 13.836 32.125 21.632 51.492 21.941 19.55.305 37.816-7.012 51.433-20.629l.817-.832c3.258-3.375 8.687-9.262 11.273-12.32a77.383 77.383 0 0 1 4.371-4.754c14.598-14.598 33.016-21.262 49.266-17.832 10.082 2.129 23.871 9.258 32.355 31.2l.34.858c8.125 21.04 19.254 49.848 37.121 67.715 19.684 19.684 45.864 30.551 73.723 30.598h.18c27.828 0 53.953-10.805 73.57-30.422 19.805-19.805 30.922-45.41 31.305-72.098.39-26.988-10.192-52.69-29.793-72.37l-.582-.57c-8.078-7.806-14.04-13.65-15.965-15.665-11.688-12.16-10.371-32.875 2.933-46.18 7.524-7.52 15.98-11.004 26.668-10.886zm0 0"/>
    </g>
</svg>
