<?xml version="1.0" encoding="UTF-8" standalone="no"?>
<!-- Created with Inkscape (http://www.inkscape.org/) -->

<svg
   xmlns:dc="http://purl.org/dc/elements/1.1/"
   xmlns:cc="http://creativecommons.org/ns#"
   xmlns:rdf="http://www.w3.org/1999/02/22-rdf-syntax-ns#"
   xmlns:svg="http://www.w3.org/2000/svg"
   xmlns="http://www.w3.org/2000/svg"
   xmlns:sodipodi="http://sodipodi.sourceforge.net/DTD/sodipodi-0.dtd"
   xmlns:inkscape="http://www.inkscape.org/namespaces/inkscape"
   width="28px"
   height="28px"
   viewBox="0 0 28 28"
   version="1.1"
   id="SVGRoot"
   inkscape:version="0.92.4 (5da689c313, 2019-01-14)"
   sodipodi:docname="master_activityBarIcon.svg">
  <defs
     id="defs12" />
  <sodipodi:namedview
     id="base"
     pagecolor="#ffffff"
     bordercolor="#666666"
     borderopacity="1.0"
     inkscape:pageopacity="0.0"
     inkscape:pageshadow="2"
     inkscape:zoom="25.928571"
     inkscape:cx="16.801319"
     inkscape:cy="16.032749"
     inkscape:document-units="px"
     inkscape:current-layer="layer2"
     showgrid="false"
     inkscape:window-width="1920"
     inkscape:window-height="1001"
     inkscape:window-x="-9"
     inkscape:window-y="-9"
     inkscape:window-maximized="1"
     inkscape:grid-bbox="true" />
  <metadata
     id="metadata15">
    <rdf:RDF>
      <cc:Work
         rdf:about="">
        <dc:format>image/svg+xml</dc:format>
        <dc:type
           rdf:resource="http://purl.org/dc/dcmitype/StillImage" />
        <dc:title />
      </cc:Work>
    </rdf:RDF>
  </metadata>
  <g
     inkscape:label="Layer 1"
     inkscape:groupmode="layer"
     id="layer1">
    <path
       id="path39"
       style="fill:#333333;stroke-width:1.42337489"
       d="M 14.021759,0.34625203 A 13.657277,13.657277 0 0 0 1.224793,9.2860147 C 3.4322253,4.9709462 8.4976793,2.0564212 14.261502,2.0564212 c 6.236962,4e-7 11.20787,3.8298486 12.994089,8.6227678 A 13.657277,13.657277 0 0 0 14.021759,0.34625203 Z M 27.255591,10.679189 a 13.657277,13.657277 0 0 1 0.423546,3.324441 13.657277,13.657277 0 0 1 -0.02398,0.402236 c 0.06481,0.0034 0.12028,0.0144 0.159828,0.04262 0.01662,-0.01697 0.03013,-0.03069 0.04795,-0.04528 -0.002,-0.14407 -0.002,-0.285346 0.05061,-0.269046 0.01173,0.0035 0.03069,0.03069 0.04795,0.05061 -0.04244,-1.196794 -0.285794,-2.378288 -0.705911,-3.505581 z M 1.224793,9.2860147 C 0.48535995,10.731449 0.06861828,12.334555 0.05271457,14.03826 c 0.01593822,0.01904 0.03343262,0.03545 0.04794832,0.05593 0.042145,0.06641 0.0922838,0.108659 0.14384607,0.16782 0.0186714,0.02143 0.036354,0.04377 0.053277,0.0666 0.0190656,0.02572 0.0351061,0.05356 0.053277,0.07991 0.0147476,0.02806 0.0196875,0.04795 0.0293015,0.0666 A 13.657277,13.657277 0 0 1 0.36438086,14.00363 13.657277,13.657277 0 0 1 1.224793,9.2860147 Z M 0.44163145,15.244967 c 4.9522e-4,0.06212 -9.3616e-4,0.124222 0,0.186468 -2.6514e-4,0.0809 -0.0107746,0.161501 -0.013325,0.242408 0.012384,-0.0063 0.0308563,-0.0061 0.0452847,-0.01337 A 13.657277,13.657277 0 0 1 0.44162599,15.244921 Z M 9.6131456,16.47565 c -0.3493806,-0.0055 -0.7058807,0.03088 -1.0735174,0.111879 -2.3398066,0.515544 -3.4854412,3.126855 -4.8188408,3.15662 -0.6130172,0.01368 -1.5703765,-0.445211 -2.357476,-1.174742 -0.065522,-0.06073 -0.1338655,-0.10225 -0.2024499,-0.149174 -0.013243,0.0033 -0.022481,0.01507 -0.037294,0.01599 a 13.657277,13.657277 0 0 0 12.8981915,9.22479 13.657277,13.657277 0 0 0 12.73037,-8.750632 c -0.0094,-0.002 -0.01969,-0.0025 -0.0293,-0.0053 -0.205608,0.182005 -0.414991,0.361408 -0.602022,0.548747 -1.498603,1.501051 -2.9025,0.524034 -4.619055,2.844953 -2.692775,3.640847 -3.072472,1.22454 -4.845479,-1.009585 C 14.119554,18.571451 12.05881,16.51347 9.6131469,16.475682 Z"
       inkscape:connector-curvature="0" />
  </g>
  <g
     inkscape:groupmode="layer"
     id="layer2"
     inkscape:label="Layer 2">
    <g
       transform="matrix(1.3638731,0,0,1.3638731,-5.1894318,-3.7665127)"
       id="layer2-4">
      <g
         style="fill:#00ff00"
         id="layer2-6"
         transform="matrix(0.97618327,0,0,0.86627103,0.59338724,-0.81075898)">
        <path
           inkscape:connector-curvature="0"
           style="fill:#00ff00;stroke-width:0.83446652"
           d="m 24.295558,14.629278 c 0,0 0.08479,2.365035 -0.108113,2.880085 -0.192895,0.515049 -0.818893,1.003569 -1.27865,1.522507 -1.125593,1.27048 -2.18042,0.443779 -3.469715,2.40819 -2.022529,3.081589 -2.306428,1.035118 -3.638124,-0.85583 C 13.623451,17.955337 11.91296,16.056943 9.7039214,16.605431 7.9465052,17.041784 7.0865295,19.251189 6.0850202,19.276387 5.6245863,19.287972 4.9053697,18.900072 4.3141835,18.282601 3.9279891,17.879236 3.4148356,17.683367 3.400798,17.32212 3.3867603,16.960873 3.2033756,16.24593 3.3247956,14.5305 c 0,-5.7885074 4.8686361,-10.2233454 10.6763414,-10.2233454 5.807705,5e-7 10.15769,4.9800842 10.294421,10.3221234 z"
           id="path39-2" />
      </g>
    </g>
  </g>
  <g
     inkscape:groupmode="layer"
     id="layer3"
     inkscape:label="Layer 3" />
</svg>
